<svg id="_0312_data_analytics" xmlns="http://www.w3.org/2000/svg" viewBox="0 0 500 500" data-imageid="report-analysis-5-79" imageName="Report Analysis 5" class="illustrations_image" style="width: 162px;"><defs><style>.cls-1_report-analysis-5-79{fill:#fff;}.cls-2_report-analysis-5-79{fill:#f4a28c;}.cls-3_report-analysis-5-79{fill:#a5a5a5;}.cls-4_report-analysis-5-79{opacity:.35;}.cls-4_report-analysis-5-79,.cls-5_report-analysis-5-79,.cls-6_report-analysis-5-79,.cls-7_report-analysis-5-79,.cls-8_report-analysis-5-79,.cls-9_report-analysis-5-79{fill:none;}.cls-10_report-analysis-5-79{fill:#ce8172;}.cls-5_report-analysis-5-79{opacity:.44;}.cls-11_report-analysis-5-79{fill:#e6e6e6;}.cls-6_report-analysis-5-79{opacity:.04;}.cls-7_report-analysis-5-79{opacity:.08;}.cls-8_report-analysis-5-79{opacity:.31;}.cls-12_report-analysis-5-79{fill:#24285b;}.cls-13_report-analysis-5-79{fill:#000001;}.cls-9_report-analysis-5-79{opacity:.53;}.cls-14_report-analysis-5-79{fill:#ffd200;}.cls-15_report-analysis-5-79{fill:#68e1fd;}</style></defs><g id="board_report-analysis-5-79"><rect class="cls-11_report-analysis-5-79" x="164.17" y="53.47" width="326.2" height="311.51"/><g class="cls-4_report-analysis-5-79"><rect class="cls-1_report-analysis-5-79" x="216.55" y="250.72" width="110.72" height="69.51"/></g><g class="cls-7_report-analysis-5-79"><polygon class="cls-13_report-analysis-5-79" points="252.79 218.32 290.62 220.97 264.11 364.98 164.17 364.98 164.17 295.81 252.79 218.32"/></g><g class="cls-4_report-analysis-5-79"><rect class="cls-1_report-analysis-5-79" x="198.98" y="125.64" width="128.29" height="105.67"/></g><path class="cls-3_report-analysis-5-79" d="m216.55,211.46c-.16,0-.32-.04-.47-.12-.49-.26-.67-.86-.41-1.35l13.77-25.93c.13-.24.35-.42.61-.49.26-.07.54-.04.78.1l21.13,12.41,18.13-26.93c.29-.43.86-.57,1.31-.32l18.9,10.38,14.42-22.79c.29-.47.91-.61,1.38-.31.47.3.61.91.31,1.38l-14.92,23.58c-.28.45-.86.6-1.33.34l-18.92-10.39-18.15,26.95c-.3.44-.88.57-1.34.3l-21.04-12.35-13.28,25c-.18.34-.53.53-.88.53Z"/><circle class="cls-12_report-analysis-5-79" cx="304.89" cy="158.04" r="4.53"/><circle class="cls-15_report-analysis-5-79 targetColor" cx="270.65" cy="170.03" r="4.53" style="fill: rgb(104, 225, 253);"/><path class="cls-12_report-analysis-5-79" d="m399.23,142.42c-23.26,0-42.11,18.85-42.11,42.11s18.85,42.11,42.11,42.11,42.11-18.85,42.11-42.11h-42.11v-42.11Z"/><path class="cls-15_report-analysis-5-79 targetColor" d="m407.36,131.88v42.11h42.11c0-23.26-18.85-42.11-42.11-42.11Z" style="fill: rgb(104, 225, 253);"/><rect class="cls-14_report-analysis-5-79" x="383.85" y="347.2" width="48.9" height="41.96"/><g class="cls-9_report-analysis-5-79"><rect class="cls-1_report-analysis-5-79" x="402.44" y="337.9" width="11.73" height="17.34"/></g><g class="cls-6_report-analysis-5-79"><rect class="cls-13_report-analysis-5-79" x="364.19" y="250.72" width="82.35" height="69.51"/></g><rect class="cls-12_report-analysis-5-79" x="379.38" y="266.71" width="10.13" height="10.13"/><rect class="cls-15_report-analysis-5-79 targetColor" x="379.38" y="291.77" width="10.13" height="10.13" style="fill: rgb(104, 225, 253);"/><g class="cls-7_report-analysis-5-79"><rect class="cls-13_report-analysis-5-79" x="400.3" y="266.71" width="31.05" height="10.13" rx="3.3" ry="3.3"/></g><g class="cls-7_report-analysis-5-79"><rect class="cls-13_report-analysis-5-79" x="400.3" y="291.77" width="31.05" height="10.13" rx="3.3" ry="3.3"/></g><circle class="cls-3_report-analysis-5-79" cx="220.41" cy="155.45" r="8.13"/><circle class="cls-15_report-analysis-5-79 targetColor" cx="186.72" cy="79.68" r="7.15" style="fill: rgb(104, 225, 253);"/><circle class="cls-12_report-analysis-5-79" cx="206.13" cy="79.68" r="7.15"/><circle class="cls-14_report-analysis-5-79" cx="225.2" cy="79.68" r="7.15"/><rect class="cls-1_report-analysis-5-79" x="290.62" y="72.53" width="180.61" height="14.3"/></g><g id="person_report-analysis-5-79"><polygon class="cls-14_report-analysis-5-79" points="122.83 309.7 150.58 203.69 264.11 210.46 238.92 320.23 122.83 309.7"/><polygon class="cls-2_report-analysis-5-79" points="92.45 176.14 85.16 218.32 110.54 225.76 105.93 190.51 92.45 176.14"/><g class="cls-8_report-analysis-5-79"><path class="cls-10_report-analysis-5-79" d="m107.27,198.18s-4.85-1.05-8.45-5.19c0,0,.26,8.73,9.72,17.46l-1.27-12.27Z"/></g><path class="cls-2_report-analysis-5-79" d="m119.16,174.67s.23,14.55-2.88,24c-1.26,3.83-5.46,5.94-9.27,4.62-4.73-1.64-10.66-5.23-11.73-13.01l-3.44-12.99s-1.87-8.21,6.73-13.52c8.6-5.31,20.9,2.02,20.6,10.89Z"/><path class="cls-2_report-analysis-5-79" d="m102.85,186s.29-5.6-3.94-5.46c-4.23.13-4.69,8.22.96,9.37l2.98-3.91Z"/><path class="cls-2_report-analysis-5-79" d="m118.83,183.85l3.65,5.88c.9,1.45-.01,3.35-1.71,3.54l-5.62.65,3.69-10.07Z"/><g class="cls-7_report-analysis-5-79"><path class="cls-13_report-analysis-5-79" d="m150.58,203.69l26.37,1.57s-10.31,82.96,22.03,111.35l-44.41-4.79-11.94-37.58,2.42-49.42,5.53-21.13Z"/></g><path class="cls-15_report-analysis-5-79 targetColor" d="m21.06,407.7s-29.98-117.62,7.2-157.45c37.18-39.83,75.55-37.86,104.34-18.86,28.78,19,55.17,45.53,14.39,176.31H21.06Z" style="fill: rgb(104, 225, 253);"/><path class="cls-2_report-analysis-5-79" d="m133.39,236.64s11.59-15.79,17.19-10.88-4.91,9.5-3.05,17.2-17.34,2.86-14.14-6.32Z"/><path class="cls-12_report-analysis-5-79" d="m87.98,182.3s-3.45,11.5,4.66,14.57c8.11,3.07,13.9-7.75,16.1-16.96,0,0,13.31-.38,13.61-8.79.3-8.41-2.84-15.18-14.7-14.05-11.86,1.14-20.33,3.24-19.68,25.22Z"/><path class="cls-15_report-analysis-5-79 targetColor" d="m107.63,248.86c2.28-12.79,14.51-20.33,26.96-16.6,14.34,4.29,25.34,21.75,30.38,39.58,10.39,36.78-1.5,82.75,26.88,77.15s14.39-89.95,14.39-89.95l16.79-.8s31.58,122.33-36.78,129.52c-60.22,6.34-88.97-80.81-78.63-138.9Z" style="fill: rgb(104, 225, 253);"/><g class="cls-5_report-analysis-5-79"><path class="cls-1_report-analysis-5-79" d="m107.63,248.86c2.28-12.79,14.51-20.33,26.96-16.6,14.34,4.29,25.34,21.75,30.38,39.58,10.39,36.78-1.5,82.75,26.88,77.15s14.39-89.95,14.39-89.95l16.79-.8s31.58,122.33-36.78,129.52c-60.22,6.34-88.97-80.81-78.63-138.9Z"/></g><rect class="cls-12_report-analysis-5-79" x="219.61" y="225.76" width="3.9" height="34.45" transform="translate(-80.8 113.73) rotate(-24.5)"/><g class="cls-7_report-analysis-5-79"><path class="cls-13_report-analysis-5-79" d="m85.16,218.32s-33.19,33.13-27.33,76.58,35.45,112.81,35.45,112.81H21.06S-.2,329.11,15.89,272.29c0,0,10.24-40.47,69.27-53.98Z"/></g><path class="cls-2_report-analysis-5-79" d="m209.31,258.9s1.23-23.04,14.82-22.24c13.59.8-1.1,21.59-1.1,21.59l-13.72.65Z"/><polygon class="cls-12_report-analysis-5-79" points="21.06 407.7 32.25 446.53 160.97 446.53 146.98 407.7 21.06 407.7"/></g></svg>