<svg version="1.1" id="Layer_1" xmlns="http://www.w3.org/2000/svg" xmlns:xlink="http://www.w3.org/1999/xlink" x="0px" y="0px" viewBox="0 0 500 500" style="width: 162px;" xml:space="preserve" data-imageid="businessman-67" imageName="Businessman" class="illustrations_image">
<style type="text/css">
	.st0_businessman-67{fill:#7CE0C3;}
	.st1_businessman-67{fill:url(#SVGID_1_);}
	.st2_businessman-67{fill:url(#SVGID_00000054982523710070083170000003668352853155268512_);}
	.st3_businessman-67{fill:url(#SVGID_00000018952646632021899860000009968078308253103776_);}
	.st4_businessman-67{fill:url(#SVGID_00000142149483667842820920000002524357858435931051_);}
	.st5_businessman-67{fill:#68E1FD;}
	.st6_businessman-67{fill:#FFC4B0;}
	.st7_businessman-67{fill:#3363A8;}
	.st8_businessman-67{fill:#D2EFFF;}
	.st9_businessman-67{fill:#56403D;}
	.st10_businessman-67{fill:#FFB92C;}
	.st11_businessman-67{fill:#146666;}
	.st12_businessman-67{fill:#5ED18D;}
	.st13_businessman-67{fill:#F7931E;}
</style>
<path id="Base_businessman-67" class="st0_businessman-67" d="M24.9,328.7l189.7,112.4c6.4,3.8,14.4,3.8,20.9,0l238.5-141c4.2-2.5,5.6-8,3.1-12.2&#10;&#9;c-0.8-1.4-2-2.5-3.4-3.3L267.2,172.8L24.9,316.1c-3.5,2.1-4.6,6.6-2.6,10C23,327.2,23.9,328.1,24.9,328.7L24.9,328.7z"/>
<g id="Shadow_businessman-67">
	
		<linearGradient id="SVGID_1_-businessman-67" gradientUnits="userSpaceOnUse" x1="264.074" y1="-1670.9951" x2="196.044" y2="-1615.0752" gradientTransform="matrix(1 0 0 1 0 1999.96)">
		<stop offset="0" style="stop-color:#5ED18D"/>
		<stop offset="0.99" style="stop-color:#7CE0C3"/>
	</linearGradient>
	<polygon class="st1_businessman-67" points="245.4,345.3 150.4,397.8 183.6,415.2 257.9,358.6 &#9;"/>
	
		<linearGradient id="SVGID_00000083083761866901503260000018243781024727258558_-businessman-67" gradientUnits="userSpaceOnUse" x1="79.1051" y1="-1689.0038" x2="49.5651" y2="-1664.5438" gradientTransform="matrix(1 0 0 1 0 1999.96)">
		<stop offset="0" style="stop-color:#5ED18D"/>
		<stop offset="0.99" style="stop-color:#7CE0C3"/>
	</linearGradient>
	<path style="fill:url(#SVGID_00000083083761866901503260000018243781024727258558_);" d="M54.8,312.3l-23.4,13.9&#10;&#9;&#9;c0,0,9.6,10.8,27.5,18.4l32.2-19.4"/>
	
		<linearGradient id="SVGID_00000028323517380338069020000000529010439895901340_-businessman-67" gradientUnits="userSpaceOnUse" x1="399.5613" y1="-1802.2976" x2="286.1213" y2="-1741.1675" gradientTransform="matrix(1 0 0 1 0 1999.96)">
		<stop offset="0" style="stop-color:#5ED18D"/>
		<stop offset="0.99" style="stop-color:#7CE0C3"/>
	</linearGradient>
	<polygon style="fill:url(#SVGID_00000028323517380338069020000000529010439895901340_);" points="377.2,233.4 262.5,310.4 &#10;&#9;&#9;215.6,273.1 319.4,202 &#9;"/>
	
		<linearGradient id="SVGID_00000087380370863019576540000012610776555415401352_-businessman-67" gradientUnits="userSpaceOnUse" x1="401.1962" y1="-1685.5225" x2="364.4462" y2="-1655.3025" gradientTransform="matrix(1 0 0 1 0 1999.96)">
		<stop offset="0" style="stop-color:#5ED18D"/>
		<stop offset="0.99" style="stop-color:#7CE0C3"/>
	</linearGradient>
	<polygon style="fill:url(#SVGID_00000087380370863019576540000012610776555415401352_);" points="370.7,318.2 333,343.5 &#10;&#9;&#9;366.3,362.6 404.6,338.6 &#9;"/>
</g>
<path id="Board_businessman-67" class="st5_businessman-67 targetColor" d="M80.5,151.2V250c0,3.7,3,6.8,6.7,6.8c0,0,0,0,0,0c1.2,0,2.4-0.3,3.4-0.9l156.2-87.3&#10;&#9;c3.1-1.7,5-5,5-8.6V62.5c0-3.6-2.9-6.5-6.5-6.5c0,0,0,0,0,0c-1,0-2.1,0.3-3,0.7L87,140.3C83,142.5,80.5,146.7,80.5,151.2z" style="fill: rgb(104, 225, 253);"/>
<g id="Character_businessman-67">
	<path class="st6_businessman-67" d="M236.2,342.1c3.2,3.5,4.4,11.3,6.6,15.3c0.5,0.9,1,1.8,1.5,2.7l9.3-4.6l-8.8-16.8L236.2,342.1z"/>
	<path class="st7_businessman-67" d="M252.5,353c-1.3,2.6-3.9,4.4-6.8,4.7c-1.2,0.2-2.4-0.2-3.3-1.1c-0.9,2.2-2,4.3-3.4,6.2&#10;&#9;&#9;c-1.8,2.8-13.8,13-6.8,15.8c5.2,2.1,22.9-13.9,22.9-17.2C255.1,357.9,253.1,354.8,252.5,353z"/>
	<path class="st6_businessman-67" d="M176.7,362.9c0.8,4.9,0.9,9.9,0.4,14.9c-0.2,1.1-0.3,2.2-0.5,3.4l12.6-2.1v-16.2H176.7z"/>
	<path class="st7_businessman-67" d="M181.6,380.2c-2.1,0-4.9-1.4-4.6-3.5c-1.7,2.8-3.7,5.3-6.1,7.5c-2.9,2.7-19.1,11.3-12.4,15.9&#10;&#9;&#9;c5,3.4,29.8-10.3,30.5-13.9c0.4-3.2,0.5-6.4,0.4-9.6C187.4,378.8,184.5,380.1,181.6,380.2z"/>
	<path class="st6_businessman-67" d="M166.8,216.5c-1.8-0.8-3.6-1.5-5.5-2l-0.1-0.2c0-0.1,0-0.1-0.1-0.2c-0.7-1.5-2-2.6-3.6-3c-1-0.2-2,0.4-2.3,1.4&#10;&#9;&#9;c0,0,0,0,0,0c-0.1,0.4,0,0.9,0.2,1.3c0.8,1.4,2,2.6,3.4,3.3c0.2,0.4,0.6,0.7,1.1,0.8c1.7,0.5,3.4,1,5,1.7c0.9,0.5,2,0.2,2.6-0.7&#10;&#9;&#9;C167.9,218.1,167.6,217,166.8,216.5z"/>
	<path class="st6_businessman-67" d="M166,224.5l-0.4-0.9l0,0c-1.2-2.8-2.4-5.7-3.4-8.5c-0.8-2.2-4.5-1.3-3.6,1l0.2,0.6c-0.2,0.5-0.2,1,0,1.5&#10;&#9;&#9;c0.8,1.7,1.6,3.3,2.4,5c0.3,0.8,0.7,1.6,1.1,2.3l0.5,1C163.8,228.5,167,226.6,166,224.5z"/>
	<path class="st7_businessman-67" d="M187.6,187.8l-0.3,0.5c-0.5,1-1,1.9-1.6,2.8c-0.6,2.2-1.2,4.5-1.8,6.7c-1.2,4.3-1.2,9.3-3.6,13.2&#10;&#9;&#9;c-2.9,4.7-9.3,3.9-13.8,2.2c-1.1-0.5-2.3-1-3.6-1.6l0,0c-0.5,6.4-0.6,13.1,1.9,19c5.3,1.9,10.9,2.7,16.5,2.5&#10;&#9;&#9;c6.5-0.2,15.3-2.2,17.7-9.1L187.6,187.8z"/>
	<path class="st7_businessman-67" d="M230.1,355c5.6,1.6,11.7,0,16.7-2.8c3.2-1.8,6.1-4.2,8.4-7l-7.1-11.9c-7.2-14.5-21.4-63.3-22.1-66.6&#10;&#9;&#9;c-0.8-4-4.1-39.5-4.1-39.5l-32.5-5.9c0,0,1.1,31,3.7,58.5c1.2,4.8,2.7,9.6,4.5,14.2c7.3,19.2,16.6,42,30.6,58.3&#10;&#9;&#9;C228.8,353.2,229.4,354.1,230.1,355z"/>
	<path class="st8_businessman-67" d="M218.4,197.6c-3.1-6.7-14.2-11.8-18.7-13.6c-1.4,0-2.7,0.1-4.1,0.3l-1.7,0.3l-1.2,0.2&#10;&#9;&#9;c-0.6,0.2-1.2,0.4-1.8,0.6c-0.8,0.5-1.6,0.9-2.4,1.5c-0.1,0.1-0.3,0.1-0.4,0.1c-0.7,0.5-1.3,1.2-1.9,1.9c0,0.1-0.1,0.1-0.2,0.2&#10;&#9;&#9;c-0.4,1.7-0.7,3.5-0.7,5.3c-0.2,5.2-0.1,10.3,0.3,15.5c0.4,6.8,1,13.6,1.4,20.5l0.7,3.3c7,5.6,19.2,7.3,20.2,7.1s0,9.5-0.7,16.5&#10;&#9;&#9;c2.5,0.6,5,1.1,7.5,1.5l0,0c1.8,0.3,3.6,0.4,5.4,0.5h3.3C228.5,230.2,222.2,206,218.4,197.6z"/>
	<polygon class="st9_businessman-67" points="143,212.4 155.3,229.8 164.4,230.5 152.1,212 &#9;"/>
	<polygon class="st9_businessman-67" points="146.6,209.3 155.1,210.2 168.4,228.8 164.4,230.5 153.4,215.4 143,212.4 &#9;"/>
	<path class="st6_businessman-67" d="M155.8,225.2h-0.6c0.6-0.8,0.5-2-0.4-2.7c-0.3-0.2-0.7-0.4-1.1-0.4h-1.5c0.6-0.6,0.7-1.6,0.3-2.3&#10;&#9;&#9;c-0.5-0.8-1.5-1.1-2.3-0.8h0.1l-0.2,0.1H150c-1-0.3-2,0.2-2.4,1.1c-0.3,0.8,0,1.8,0.8,2.2l0.4,0.2c-0.7,0.7-0.7,2,0,2.7&#10;&#9;&#9;c0.3,0.3,0.8,0.5,1.3,0.6h0.3c-0.6,0.8-0.4,2,0.4,2.6c0.3,0.2,0.7,0.3,1.1,0.3c1.3,0.1,2.6,0.2,3.9,0.1c1,0,1.8-0.8,1.9-1.9&#10;&#9;&#9;C157.7,226.1,156.9,225.3,155.8,225.2C155.9,225.2,155.9,225.2,155.8,225.2L155.8,225.2z"/>
	<path class="st7_businessman-67" d="M203.4,240.2l0.9,32.3c0,0,20.3-5.9,21.4-6.7s0.2-34.3-0.5-35"/>
	<path class="st7_businessman-67" d="M181.4,254.7c0,4.5,4,9.7,7.3,10.6c-0.2-1.6-0.5-4.8-0.5-16.4c0-8.1,0.9-20.7,1-28.9c0.1-7.3-0.6-19,1.9-25.9&#10;&#9;&#9;c0.4-1,4.1-10.1,5.9-9.3l0,0c-0.9-0.7-1.8-1.3-2.9-1.6c-2.8,0.9-4.9,0.4-6.7,2.9c-1.8,3-2.8,6.4-3,9.9c-0.2,5.2-0.1,10.3,0.3,15.5&#10;&#9;&#9;C185,217.3,181,248.8,181.4,254.7z"/>
	<path class="st8_businessman-67" d="M204.1,185.2l4.2,3.4c0,0-9.7,9.2-10.5,9.1s-1.5-4.8-1.5-4.8s-2.1,4.2-2.6,3.6s0.6-11,0.6-11L204.1,185.2z"/>
	<path class="st6_businessman-67" d="M195.7,189.2c1.1,0.6,2.3,1,3.5,1c3.9,0.2,6.3-4,7.8-7c1.9-3.5,3-7.4,3.2-11.4c0-0.6,0-1.3-0.2-1.9&#10;&#9;&#9;c-1.5-4.5-17.7-7.9-18.6,1C190.8,176.2,190.4,186,195.7,189.2z"/>
	<path class="st6_businessman-67" d="M208.3,176.6c-1.1-0.1-2.2,0.4-3,1.1c-0.9,0.8-1.4,1.8-1.6,3c-0.1,0.5,0.1,1,0.6,1.2c0.4,0.7,1.2,0.9,1.8,0.5&#10;&#9;&#9;c0,0,0,0,0,0l0.1-0.1c1.1-0.7,2-1.6,2.8-2.6C209.8,178.8,209.9,176.9,208.3,176.6z"/>
	<path class="st9_businessman-67" d="M214.3,165.7c-0.3-2-1.4-3.7-3.1-4.8c-1.8-1.2-4.1-1.6-6.2-1c-0.8-1.3-2-2.4-3.5-2.9c-2.7-0.9-5.7,0-7.5,2.3&#10;&#9;&#9;c-2.3-0.3-4.7,0.3-6.7,1.6c-2,1.4-3.3,3.8-3.4,6.3c0,0.4,0,0.7,0,1.1c-0.1,0.6-0.1,1.3,0.1,1.9c0.8,4.4,4.7,5.5,7,5.7&#10;&#9;&#9;c-0.4-2.4,0-7,2.7-5.8c0.2,0,0.3,0,0.4,0.1c1.7,0.8,0.3,3.2,2.8,3.6s3.9-1.6,6.2,0.7s-2.7,4.8,2.6,8.9c0,0.3,0.1,0.6,0.1,0.9&#10;&#9;&#9;c0-0.4,2.1-2.3,2.4-2.7c0.9-1,1.7-2.1,2.5-3.1c1.4-1.8,2.6-3.7,3.3-5.9C214.9,170.3,214.8,167.9,214.3,165.7z"/>
	<path class="st6_businessman-67" d="M207.8,179.8c0.2-1.6-1-2.5-2.2-1.8c-1.9,1.1-3.1,3.1-3.1,5.3c0,0.4,0.1,0.9,0.4,1.2c0.1,0.1,0.1,0.2,0.2,0.3&#10;&#9;&#9;c0.6,0.6,1.5,0.6,2.1,0l0.1-0.1C206.6,183.3,207.5,181.6,207.8,179.8z"/>
	<path class="st9_businessman-67" d="M191.7,182.2c-0.3,0-0.6-0.1-0.9-0.2c-2.8-1.2-2.7-6.1-2.7-6.4V175l0.7,0.2c2.3,0.8,4.9,1.8,5.2,1.8l0.4,0.1&#10;&#9;&#9;v0.5c0,0.4-0.3,3.5-1.9,4.4C192.3,182.2,192,182.3,191.7,182.2z M189.2,176.4c0.1,1.3,0.4,4,2.1,4.7c0.3,0.2,0.6,0.2,0.9,0&#10;&#9;&#9;c0.7-0.4,1.2-2,1.3-3.2C192.4,177.6,190.3,176.9,189.2,176.4L189.2,176.4z"/>
	<path class="st9_businessman-67" d="M199.2,184.9c-0.3,0-0.6,0-0.9-0.1c-0.9-0.2-1.8-0.7-2.2-1.6c-1.1-1.9-0.1-4.9-0.1-5l0.2-0.5l6.4,2.3v0.4&#10;&#9;&#9;c0,0.1,0,2.7-1.5,3.9C200.5,184.7,199.9,184.9,199.2,184.9z M196.8,179.1c-0.4,1.2-0.3,2.5,0.1,3.6c0.3,0.6,0.9,1,1.6,1.1&#10;&#9;&#9;c0.6,0.2,1.4,0.1,1.9-0.3c0.7-0.8,1.1-1.7,1.1-2.8L196.8,179.1z"/>
	<path class="st9_businessman-67" d="M204.7,177.8l-2.7,2.3c-0.3,0.3,0.2,0.8,0.5,0.5l2.7-2.3C205.5,178,205.1,177.5,204.7,177.8z"/>
	<path class="st9_businessman-67" d="M194.5,184.3c-0.4,0-1.1-0.2-1.1-0.7c0.1-0.3,0.2-0.6,0.4-0.9c0.3-0.6,0.6-1.2,0.9-1.7c0.1-0.2,0-0.4-0.2-0.5&#10;&#9;&#9;c-0.2-0.1-0.3,0-0.4,0.1c-0.3,0.6-0.6,1.1-0.9,1.7c-0.3,0.5-0.4,1-0.5,1.5c0,0.8,1.2,1.1,1.8,1.2&#10;&#9;&#9;C194.9,185,194.9,184.3,194.5,184.3z"/>
	<path class="st9_businessman-67" d="M196.7,178.1c-1-0.2-2-0.5-3-0.8c-0.4-0.1-0.6,0.5-0.2,0.7c1,0.3,2,0.6,2.9,0.8&#10;&#9;&#9;C196.9,178.9,197.1,178.2,196.7,178.1z"/>
	<path class="st7_businessman-67" d="M188.2,200.2l4.2,25.8c0,0,11-34.1,12.9-34.6s-1,81-1,81l-9-4.6l-0.9-10.5c0,0-1.8,9.8-2.3,10.4&#10;&#9;&#9;s-11.4-1.8-14.5-7.1C176.8,259.2,188.2,200.2,188.2,200.2z"/>
	<path class="st7_businessman-67" d="M182.6,243.7c0,0-15.5,80.3-16.9,125.9c3.8,1.8,10.2,5.1,18.2,5.4c5.9,0.2,6.5-1.5,9-2.9&#10;&#9;&#9;c-0.3-5.3,3-48.8,3.4-50.5s7.4-29.1,7.4-29.1c-3.9-18.2-6.8-36.7-6.7-55.4L182.6,243.7"/>
	<path class="st10_businessman-67" d="M208,291.6c0,0-2.5-15.2,8.1-19.1c7.3-2.7,9.4,12.3,9.4,12.3l5.1-2.2c0,0-2.8-17.1-13-16.6&#10;&#9;&#9;s-17.4,15.4-16.2,29.2L208,291.6z"/>
	<path class="st10_businessman-67" d="M192.6,298.5l42.9-23.7c1.4-0.8,3.2-0.3,3.9,1.1c0.2,0.4,0.4,0.9,0.4,1.4v40.9c0,1-0.6,2-1.5,2.5l-44.2,25.2&#10;&#9;&#9;c-1.4,0.8-3.2,0.3-3.9-1.1c0,0,0,0,0,0c-0.3-0.5-0.4-1-0.4-1.5l1.4-42.4C191.2,299.9,191.7,299,192.6,298.5z"/>
	
		<ellipse transform="matrix(0.1742 -0.9847 0.9847 0.1742 -125.1115 470.3838)" class="st8_businessman-67" cx="217.9" cy="309.8" rx="7.2" ry="3.1"/>
	<path class="st6_businessman-67" d="M222.8,271.8c-0.2-2.9-0.6-5.8-1.2-8.6c0-3.3-0.2-6.6-0.8-9.9c-3.6-0.1-7.1-0.1-10.7,0.2c0,1.8,0,3.5-0.1,5.3&#10;&#9;&#9;c-0.4,1.3-0.8,2.6-1.1,3.9c-0.2,0.2-0.4,0.4-0.5,0.7c-1.6,3.3-2.7,6.9-3.1,10.6c0,1.1,0.9,1.9,2,1.8c0,0,0,0,0,0&#10;&#9;&#9;c0.6,0,1.2-0.4,1.6-0.9c0.5-1.2,1.1-2.4,1.5-3.6c0,1.7,0,3.3,0.1,5c0,1,0.9,1.9,1.9,1.9c1,0.1,1.9-0.5,2.3-1.4&#10;&#9;&#9;c0.6,0.8,1.7,1.1,2.6,0.8c0.8-0.4,1.4-1.1,1.6-1.9c0.7,0.4,1.5,0.4,2.2,0C222.7,275.1,222.9,273.3,222.8,271.8z"/>
	<path class="st7_businessman-67" d="M219.2,196.1c-1.8-3.9-7.3-5.8-11.8-8.4c0,0.3-0.1,0.5-0.3,0.7c-2.9,2.5-3.9,6.5-4.5,10.1&#10;&#9;&#9;c-0.6,4.1-1,8.3-1,12.5c-0.1,9.7,1.5,19.4,1.7,29.1c1.5,0.4,3,0.6,4.5,0.6c0.9-0.2,0,9.5-0.7,16.5c2.5,0.6,5,1.1,7.5,1.5l0,0&#10;&#9;&#9;c1.8,0.3,3.6,0.4,5.4,0.5h3.3C228.5,230.3,223.1,204.5,219.2,196.1z"/>
	<polygon class="st9_businessman-67" points="193.9,195.8 189.7,222.8 192.1,229 198.1,221.2 198,197.6 196.4,192.3 &#9;"/>
	<path class="st8_businessman-67" d="M195.7,295.2c-2.3-6.5-4.3-13.1-6-19.9c-0.1-0.2-0.2-0.2-0.4-0.2c-0.1,0.1-0.2,0.2-0.2,0.3&#10;&#9;&#9;c1.7,6.7,3.7,13.3,6,19.9C195.2,295.8,195.8,295.6,195.7,295.2z"/>
</g>
<g id="Box_businessman-67">
	<polygon class="st11_businessman-67" points="478.7,253 478.7,296.7 401.8,341.5 401.8,289.9 &#9;"/>
	<polygon class="st11_businessman-67" points="401.8,341.5 401.8,296.4 367.9,276.8 367.9,321 &#9;"/>
	<polygon class="st10_businessman-67" points="401.5,296.9 367.6,277.4 446.7,232.4 478.7,253 &#9;"/>
</g>
<g id="Plant_businessman-67">
	<path class="st5_businessman-67 targetColor" d="M441.9,234.1c-5.1-0.4-10.4-2-14.2-5.4v15.1c0,8.6,7,15.6,15.6,15.6l0,0l0,0c8.6,0,15.6-7,15.6-15.6v-15.3&#10;&#9;&#9;C453.6,230.6,447.5,234.6,441.9,234.1z" style="fill: rgb(104, 225, 253);"/>
	<ellipse class="st12_businessman-67" cx="443.3" cy="228.6" rx="15.6" ry="8.3"/>
	<path class="st12_businessman-67" d="M443.3,230c0,0-10.6-1.6-13.4-18.7C429.9,211.2,438.9,216.2,443.3,230z"/>
	<path class="st0_businessman-67" d="M444.9,227.7c0,0-12.2-21.9,0-36.6C448.6,203,448.6,215.8,444.9,227.7z"/>
	<path class="st0_businessman-67" d="M443.3,214c0,0-10.6-1.6-13.4-18.7C429.9,195.3,438.9,200.3,443.3,214z"/>
	<path class="st0_businessman-67" d="M444.6,221c0,0-2.7-10.4,12.1-19.6C456.7,201.4,455.6,211.7,444.6,221z"/>
	<ellipse class="st11_businessman-67" cx="443.3" cy="228.6" rx="15.6" ry="8.3"/>
	<path class="st0_businessman-67" d="M443.3,230c0,0-10.6-1.6-13.4-18.7C429.9,211.2,438.9,216.2,443.3,230z"/>
	<path class="st0_businessman-67" d="M444.9,227.7c0,0-12.2-21.9,0-36.6C448.6,203,448.6,215.8,444.9,227.7z"/>
	<path class="st0_businessman-67" d="M443.3,214c0,0-10.6-1.6-13.4-18.7C429.9,195.3,438.9,200.3,443.3,214z"/>
	<path class="st0_businessman-67" d="M444.6,221c0,0-2.7-10.4,12.1-19.6C456.7,201.4,455.6,211.7,444.6,221z"/>
</g>
<g id="Coin_Stack_2_businessman-67">
	<ellipse class="st13_businessman-67" cx="404.8" cy="273.2" rx="20" ry="11.7"/>
	<ellipse class="st10_businessman-67" cx="404.8" cy="269.8" rx="20" ry="11.7"/>
	<path class="st13_businessman-67" d="M415,268.2c0.1,0.3,0.2,0.6,0.2,0.9l-0.1,0.3h-3.6c0-0.1,0.1-0.2,0.1-0.3c0-0.2-0.1-0.5-0.2-0.7&#10;&#9;&#9;c-0.2-0.4-0.5-0.6-0.9-0.8c-0.5-0.3-1.1-0.4-1.7-0.5c-0.6,0-1.1,0-1.6,0.2c-0.5,0.2-0.7,0.5-0.6,0.9c0.2,0.4,0.4,0.8,0.8,1.1&#10;&#9;&#9;c0.4,0.4,0.8,0.8,1.1,1.3c0.3,0.4,0.4,0.9,0.2,1.4c-0.4,0.7-1,1.1-1.8,1.4c-1.2,0.5-2.5,0.8-3.9,0.8c-1.4,0-2.9-0.2-4.2-0.6&#10;&#9;&#9;l-2.1,0.9l-2.5-1.2l2-0.9c-0.4-0.2-0.7-0.5-1-0.9c-0.2-0.2-0.4-0.5-0.5-0.8c-0.1-0.2-0.1-0.4-0.1-0.7c0-0.2,0-0.3,0-0.5l0.1-0.2&#10;&#9;&#9;h3.6c0,0.1-0.1,0.2-0.1,0.4c0,0.3,0.1,0.6,0.3,0.8c0.3,0.4,0.7,0.8,1.2,1c0.7,0.3,1.4,0.5,2.1,0.6c0.7,0.1,1.4-0.1,2-0.3&#10;&#9;&#9;c0.5-0.2,0.7-0.5,0.6-0.9c-0.2-0.4-0.5-0.8-0.8-1.1c-0.4-0.4-0.8-0.8-1.1-1.3c-0.3-0.4-0.3-0.9-0.1-1.4c0.4-0.7,1.1-1.1,1.9-1.4&#10;&#9;&#9;c1.2-0.5,2.4-0.7,3.7-0.7c1.4-0.1,2.7,0.2,4,0.6l2.1-0.9l2.3,1.2l-2.1,0.9C414.5,267.4,414.8,267.8,415,268.2z"/>
	<path class="st13_businessman-67" d="M404.9,283.9c-11.7,0-20.9-6.1-20.9-13.9s9.2-13.9,20.9-13.9s20.9,6.1,20.9,13.9S416.5,283.9,404.9,283.9z&#10;&#9;&#9; M404.9,264.2c-7.6,0-12.7,3.5-12.7,5.8s5.1,5.8,12.7,5.8s12.7-3.5,12.7-5.8S412.5,264.2,404.9,264.2z"/>
	<ellipse class="st13_businessman-67" cx="404.8" cy="266.7" rx="20" ry="11.7"/>
	<ellipse class="st10_businessman-67" cx="404.8" cy="263.4" rx="20" ry="11.7"/>
	<path class="st13_businessman-67" d="M415,261.8c0.1,0.3,0.2,0.6,0.2,0.9L415,263h-3.6c0-0.1,0.1-0.2,0.1-0.3c0-0.2-0.1-0.5-0.2-0.7&#10;&#9;&#9;c-0.2-0.4-0.5-0.6-0.9-0.8c-0.5-0.3-1.1-0.4-1.7-0.5c-0.5,0-1.1,0-1.6,0.2c-0.5,0.2-0.7,0.5-0.6,0.9c0.2,0.4,0.4,0.8,0.8,1.1&#10;&#9;&#9;c0.4,0.4,0.8,0.8,1.1,1.3c0.3,0.4,0.4,0.9,0.2,1.4c-0.4,0.7-1,1.1-1.8,1.4c-1.2,0.5-2.5,0.8-3.9,0.8c-1.4,0-2.9-0.1-4.2-0.6&#10;&#9;&#9;l-2.1,0.9l-2.5-1.2l2-0.9c-0.4-0.2-0.7-0.5-1-0.9c-0.2-0.2-0.4-0.5-0.5-0.8c-0.1-0.2-0.1-0.4-0.1-0.7c0-0.2,0-0.3,0-0.5l0.1-0.2&#10;&#9;&#9;h3.6c0,0.1-0.1,0.2-0.1,0.4c0,0.3,0.1,0.6,0.3,0.8c0.3,0.4,0.7,0.8,1.2,1c0.7,0.3,1.4,0.5,2.1,0.6c0.7,0,1.4-0.1,2-0.3&#10;&#9;&#9;c0.5-0.2,0.7-0.5,0.6-0.9c-0.2-0.4-0.5-0.8-0.8-1.1c-0.4-0.4-0.8-0.8-1.1-1.3c-0.3-0.4-0.3-0.9-0.1-1.4c0.4-0.7,1.1-1.1,1.9-1.4&#10;&#9;&#9;c1.2-0.5,2.4-0.7,3.7-0.7c1.4,0,2.7,0.2,4,0.6l2.1-0.9l2.3,1.2l-2.1,0.9C414.5,260.9,414.8,261.3,415,261.8z"/>
	<path class="st13_businessman-67" d="M404.9,274.7c-10.2,0-18.1-4.9-18.1-11.2s8-11.2,18.1-11.2s18.1,4.9,18.1,11.2S415,274.7,404.9,274.7z&#10;&#9;&#9; M404.9,255c-8.4,0-15.4,3.9-15.4,8.5s7.1,8.5,15.4,8.5s15.4-3.9,15.4-8.5S413.2,255,404.9,255L404.9,255z"/>
	<ellipse class="st13_businessman-67" cx="397" cy="261.8" rx="20" ry="11.7"/>
	<ellipse class="st10_businessman-67" cx="397" cy="258.4" rx="20" ry="11.7"/>
	<path class="st13_businessman-67" d="M407.1,256.9c0.1,0.3,0.2,0.6,0.2,0.9l-0.1,0.3h-3.6c0-0.1,0.1-0.2,0.1-0.3c0-0.2-0.1-0.5-0.2-0.7&#10;&#9;&#9;c-0.2-0.4-0.5-0.6-0.9-0.8c-0.5-0.3-1.1-0.4-1.7-0.4c-0.6,0-1.1,0-1.6,0.3c-0.5,0.2-0.7,0.5-0.6,0.9c0.2,0.4,0.4,0.8,0.8,1.1&#10;&#9;&#9;c0.4,0.4,0.8,0.8,1.1,1.3c0.3,0.4,0.4,0.9,0.2,1.4c-0.4,0.7-1,1.1-1.8,1.4c-1.2,0.5-2.5,0.8-3.9,0.8c-1.4,0.1-2.9-0.2-4.2-0.6&#10;&#9;&#9;l-2.1,0.9l-2.5-1.2l2-0.9c-0.4-0.2-0.7-0.5-1-0.9c-0.2-0.2-0.4-0.5-0.5-0.8c-0.1-0.2-0.1-0.3-0.1-0.5c0-0.2,0-0.3,0-0.5l0.1-0.2&#10;&#9;&#9;h3.6c0,0.1-0.1,0.2-0.1,0.4c0,0.3,0.1,0.6,0.3,0.8c0.3,0.4,0.7,0.8,1.2,1c0.7,0.3,1.4,0.5,2.1,0.6c0.7,0.1,1.4-0.1,2-0.3&#10;&#9;&#9;c0.5-0.2,0.7-0.5,0.6-0.9c-0.2-0.4-0.5-0.8-0.8-1.1c-0.4-0.4-0.8-0.8-1.1-1.3c-0.3-0.4-0.3-0.9-0.1-1.4c0.4-0.7,1.1-1.1,1.9-1.4&#10;&#9;&#9;c1.2-0.5,2.4-0.7,3.7-0.8c1.4,0,2.7,0.2,4,0.6l2.1-0.9l2.4,1.1l-2.1,0.9C406.7,256,407,256.4,407.1,256.9z"/>
	<path class="st13_businessman-67" d="M397,269.8c-10.2,0-18.1-4.9-18.1-11.2s8-11.2,18.1-11.2s18.1,4.9,18.1,11.2S407.2,269.8,397,269.8z&#10;&#9;&#9; M397,250.1c-8.4,0-15.4,3.9-15.4,8.5s7.1,8.4,15.4,8.4s15.4-3.9,15.4-8.5S405.4,250.1,397,250.1z"/>
</g>
<g id="Coin_Stack_1_businessman-67">
	<ellipse class="st13_businessman-67" cx="69.6" cy="321.5" rx="20" ry="11.7"/>
	<ellipse class="st10_businessman-67" cx="69.6" cy="318.1" rx="20" ry="11.7"/>
	<path class="st13_businessman-67" d="M79.8,316.5c0.1,0.3,0.2,0.6,0.2,0.9l-0.1,0.3h-3.7c0-0.1,0.1-0.2,0.1-0.3c0-0.2-0.1-0.5-0.2-0.7&#10;&#9;&#9;c-0.2-0.4-0.5-0.6-0.9-0.8c-0.5-0.3-1.1-0.4-1.7-0.5c-0.6,0-1.1,0-1.6,0.2c-0.5,0.2-0.7,0.5-0.6,0.9c0.2,0.4,0.4,0.8,0.8,1.1&#10;&#9;&#9;c0.4,0.4,0.8,0.8,1.1,1.3c0.3,0.4,0.4,0.9,0.2,1.4c-0.4,0.7-1,1.1-1.8,1.4c-1.2,0.5-2.5,0.8-3.9,0.8c-1.4,0.1-2.9-0.2-4.2-0.6&#10;&#9;&#9;l-2.1,0.9l-2.5-1.2l2-0.9c-0.4-0.2-0.7-0.5-1-0.9c-0.2-0.2-0.4-0.5-0.5-0.8c-0.1-0.2-0.1-0.4-0.1-0.7c0-0.2,0-0.3,0-0.5l0.1-0.2H63&#10;&#9;&#9;c0,0.1-0.1,0.2-0.1,0.4c0,0.3,0.1,0.6,0.3,0.8c0.3,0.4,0.7,0.8,1.2,1c0.7,0.3,1.4,0.5,2.1,0.6c0.7,0.1,1.4-0.1,2-0.3&#10;&#9;&#9;c0.5-0.2,0.7-0.5,0.6-0.9c-0.2-0.4-0.5-0.8-0.8-1.1c-0.4-0.4-0.8-0.8-1.1-1.2c-0.3-0.4-0.3-0.9-0.2-1.4c0.4-0.7,1.1-1.1,1.9-1.4&#10;&#9;&#9;c1.2-0.5,2.4-0.7,3.7-0.7c1.4-0.1,2.7,0.2,4,0.6l2.1-0.9l2.3,1.2l-2.1,0.9C79.3,315.7,79.6,316.1,79.8,316.5z"/>
	<path class="st13_businessman-67" d="M69.6,332.1c-11.7,0-20.8-6.1-20.8-13.9s9.2-13.9,20.8-13.9s20.9,6.1,20.9,13.9S81.3,332.1,69.6,332.1z&#10;&#9;&#9; M69.6,312.5c-7.6,0-12.7,3.5-12.7,5.8S62,324,69.6,324s12.7-3.5,12.7-5.8S77.3,312.5,69.6,312.5z"/>
	<ellipse class="st13_businessman-67" cx="69.6" cy="315" rx="20" ry="11.7"/>
	<ellipse class="st10_businessman-67" cx="69.6" cy="311.6" rx="20" ry="11.7"/>
	<path class="st13_businessman-67" d="M79.8,310.1c0.1,0.3,0.2,0.6,0.2,0.9l-0.1,0.3h-3.7c0-0.1,0.1-0.2,0.1-0.3c0-0.2-0.1-0.5-0.2-0.7&#10;&#9;&#9;c-0.2-0.4-0.5-0.6-0.9-0.8c-0.5-0.3-1.1-0.4-1.7-0.5c-0.6,0-1.1,0-1.6,0.2c-0.5,0.2-0.7,0.5-0.6,0.9c0.2,0.4,0.4,0.8,0.8,1.1&#10;&#9;&#9;c0.4,0.4,0.8,0.8,1.1,1.3c0.3,0.4,0.4,0.9,0.2,1.4c-0.4,0.7-1,1.1-1.8,1.4c-1.2,0.5-2.5,0.8-3.9,0.8c-1.4,0-2.9-0.2-4.2-0.6&#10;&#9;&#9;l-2.1,0.9l-2.5-1.2l2-0.9c-0.4-0.2-0.7-0.5-1-0.9c-0.2-0.2-0.4-0.5-0.5-0.8c-0.1-0.2-0.1-0.4-0.1-0.7c0-0.2,0-0.3,0-0.5l0.1-0.2H63&#10;&#9;&#9;c0,0.1-0.1,0.2-0.1,0.4c0,0.3,0.1,0.6,0.3,0.8c0.3,0.4,0.7,0.8,1.2,1c0.7,0.3,1.4,0.5,2.1,0.6c0.7,0.1,1.4-0.1,2-0.3&#10;&#9;&#9;c0.5-0.2,0.7-0.5,0.6-0.9c-0.2-0.4-0.5-0.8-0.8-1.1c-0.4-0.4-0.8-0.8-1.1-1.3c-0.3-0.4-0.3-0.9-0.2-1.4c0.4-0.7,1.1-1.1,1.9-1.4&#10;&#9;&#9;c1.2-0.5,2.4-0.7,3.7-0.7c1.4-0.1,2.7,0.1,4,0.6l2.1-0.9L81,308l-2.1,0.9C79.3,309.3,79.6,309.6,79.8,310.1z"/>
	<path class="st13_businessman-67" d="M69.6,325.7c-11.7,0-20.8-6.1-20.8-13.9s9.2-13.9,20.8-13.9s20.9,6.1,20.9,13.9S81.3,325.7,69.6,325.7z&#10;&#9;&#9; M69.6,306c-7.6,0-12.7,3.5-12.7,5.8s5.1,5.8,12.7,5.8s12.7-3.5,12.7-5.8S77.3,306,69.6,306L69.6,306z"/>
	<ellipse class="st13_businessman-67" cx="69.6" cy="308.6" rx="20" ry="11.7"/>
	<ellipse class="st10_businessman-67" cx="69.6" cy="305.2" rx="20" ry="11.7"/>
	<path class="st13_businessman-67" d="M79.8,303.6c0.1,0.3,0.2,0.6,0.2,0.9l-0.1,0.3h-3.7c0-0.1,0.1-0.2,0.1-0.3c0-0.2-0.1-0.5-0.2-0.7&#10;&#9;&#9;c-0.2-0.4-0.5-0.6-0.9-0.8c-0.5-0.3-1.1-0.4-1.7-0.5c-0.6,0-1.1,0-1.6,0.2c-0.5,0.2-0.7,0.5-0.6,0.9c0.2,0.4,0.4,0.8,0.8,1.1&#10;&#9;&#9;c0.4,0.4,0.8,0.8,1.1,1.3c0.3,0.4,0.4,0.9,0.2,1.4c-0.4,0.7-1,1.1-1.8,1.4c-1.2,0.5-2.5,0.8-3.9,0.8c-1.4,0.1-2.9-0.1-4.2-0.6&#10;&#9;&#9;l-2.1,0.9l-2.5-1.2l2-0.9c-0.4-0.2-0.7-0.5-1-0.9c-0.2-0.2-0.4-0.5-0.5-0.8c-0.1-0.2-0.1-0.4-0.1-0.7c0-0.2,0-0.3,0-0.5l0.1-0.2H63&#10;&#9;&#9;c0,0.1-0.1,0.2-0.1,0.4c0,0.3,0.1,0.6,0.3,0.8c0.3,0.4,0.7,0.8,1.2,1c0.7,0.3,1.4,0.5,2.1,0.5c0.7,0.1,1.4-0.1,2-0.3&#10;&#9;&#9;c0.5-0.2,0.7-0.5,0.6-0.9c-0.2-0.4-0.5-0.8-0.8-1.1c-0.4-0.4-0.8-0.8-1.1-1.3c-0.3-0.4-0.3-0.9-0.2-1.4c0.4-0.7,1.1-1.1,1.9-1.4&#10;&#9;&#9;c1.2-0.5,2.4-0.7,3.7-0.7c1.4-0.1,2.7,0.2,4,0.6l2.1-0.9l2.3,1.3l-2.1,0.9C79.3,302.8,79.6,303.2,79.8,303.6z"/>
	<path class="st13_businessman-67" d="M69.6,319.2c-11.7,0-20.8-6.1-20.8-13.9s9.2-13.9,20.8-13.9s20.9,6.1,20.9,13.9S81.3,319.2,69.6,319.2z&#10;&#9;&#9; M69.6,299.6c-7.6,0-12.7,3.5-12.7,5.8s5.1,5.8,12.7,5.8s12.7-3.5,12.7-5.8S77.3,299.6,69.6,299.6z"/>
	<ellipse class="st13_businessman-67" cx="69.6" cy="303.8" rx="20" ry="11.7"/>
	<ellipse class="st10_businessman-67" cx="69.6" cy="300.4" rx="20" ry="11.7"/>
	<path class="st13_businessman-67" d="M79.8,298.8c0.1,0.3,0.2,0.6,0.2,0.9l-0.1,0.3h-3.7c0-0.1,0.1-0.2,0.1-0.3c0-0.2-0.1-0.5-0.2-0.7&#10;&#9;&#9;c-0.2-0.4-0.5-0.6-0.9-0.8c-0.5-0.3-1.1-0.4-1.7-0.4c-0.6,0-1.1,0-1.6,0.2c-0.5,0.2-0.7,0.5-0.6,0.9c0.2,0.4,0.4,0.8,0.8,1.1&#10;&#9;&#9;c0.4,0.4,0.8,0.8,1.1,1.3c0.3,0.4,0.4,0.9,0.2,1.4c-0.4,0.7-1,1.1-1.8,1.4c-1.2,0.5-2.5,0.8-3.9,0.8c-1.4,0.1-2.9-0.2-4.2-0.6&#10;&#9;&#9;l-2.1,0.9l-2.5-1.2l2-0.9c-0.4-0.2-0.7-0.5-1-0.9c-0.2-0.2-0.4-0.5-0.5-0.8c-0.1-0.2-0.1-0.4-0.1-0.7c0-0.2,0-0.3,0-0.5l0.1-0.2H63&#10;&#9;&#9;c0,0.1-0.1,0.2-0.1,0.4c0,0.3,0.1,0.6,0.3,0.8c0.3,0.4,0.7,0.8,1.2,1c0.7,0.3,1.4,0.5,2.1,0.5c0.7,0.1,1.4-0.1,2-0.3&#10;&#9;&#9;c0.5-0.2,0.7-0.5,0.6-0.9c-0.2-0.4-0.5-0.8-0.8-1.1c-0.4-0.4-0.8-0.8-1.1-1.3c-0.3-0.4-0.3-0.9-0.2-1.4c0.4-0.7,1.1-1.1,1.9-1.4&#10;&#9;&#9;c1.2-0.5,2.4-0.7,3.7-0.7c1.4-0.1,2.7,0.2,4,0.6l2.1-0.9l2.3,1.3l-2.1,0.9C79.3,298,79.6,298.4,79.8,298.8z"/>
	<path class="st13_businessman-67" d="M69.6,314.4c-11.7,0-20.8-6.1-20.8-13.9s9.2-13.9,20.8-13.9s20.9,6.1,20.9,13.9S81.3,314.4,69.6,314.4z&#10;&#9;&#9; M69.6,294.8c-7.6,0-12.7,3.5-12.7,5.8s5.1,5.8,12.7,5.8s12.7-3.5,12.7-5.8S77.3,294.8,69.6,294.8z"/>
	<ellipse class="st13_businessman-67" cx="72.9" cy="297.3" rx="20" ry="11.7"/>
	<ellipse class="st10_businessman-67" cx="72.9" cy="293.9" rx="20" ry="11.7"/>
	<path class="st13_businessman-67" d="M83.1,292.4c0.1,0.3,0.2,0.6,0.2,0.9l-0.1,0.3h-3.6c0-0.1,0.1-0.2,0.1-0.3c0-0.2-0.1-0.5-0.2-0.7&#10;&#9;&#9;c-0.2-0.4-0.5-0.6-0.9-0.8c-0.5-0.3-1.1-0.4-1.7-0.4c-0.6,0-1.1,0-1.6,0.2c-0.5,0.2-0.7,0.5-0.6,0.9c0.2,0.4,0.4,0.8,0.8,1.1&#10;&#9;&#9;c0.4,0.4,0.8,0.8,1.1,1.3c0.3,0.4,0.4,0.9,0.2,1.4c-0.4,0.7-1,1.1-1.8,1.4c-1.2,0.5-2.5,0.8-3.9,0.8c-1.4,0.1-2.9-0.2-4.2-0.6&#10;&#9;&#9;l-2.1,0.9l-2.5-1.2l2-0.9c-0.4-0.2-0.7-0.5-1-0.9c-0.2-0.2-0.4-0.5-0.5-0.8c-0.1-0.2-0.1-0.4-0.1-0.7c0-0.2,0-0.3,0-0.5l0.1-0.2&#10;&#9;&#9;h3.6c0,0.1-0.1,0.2-0.1,0.4c0,0.3,0.1,0.6,0.3,0.8c0.3,0.4,0.7,0.8,1.2,1c0.7,0.3,1.4,0.5,2.1,0.5c0.7,0.1,1.4-0.1,2-0.3&#10;&#9;&#9;c0.5-0.2,0.7-0.5,0.6-0.9c-0.2-0.4-0.5-0.8-0.8-1.1c-0.4-0.4-0.8-0.8-1.1-1.3c-0.3-0.4-0.3-0.9-0.2-1.4c0.4-0.7,1.1-1.1,1.9-1.3&#10;&#9;&#9;c1.2-0.5,2.4-0.7,3.7-0.7c1.4,0,2.7,0.2,4,0.6L82,289l2.3,1.2l-2.1,0.9C82.6,291.5,82.9,291.9,83.1,292.4z"/>
	<path class="st13_businessman-67" d="M72.9,305.9c-10.5,0-18.8-5.2-18.8-11.9s8.3-11.9,18.8-11.9s18.8,5.2,18.8,11.9S83.4,305.9,72.9,305.9z&#10;&#9;&#9; M72.9,286.3c-8.8,0-14.8,4-14.8,7.8s5.9,7.8,14.8,7.8s14.8-4,14.8-7.8S81.7,286.3,72.9,286.3z"/>
	<ellipse class="st13_businessman-67" cx="79.9" cy="290.4" rx="20" ry="11.7"/>
	<ellipse class="st10_businessman-67" cx="79.9" cy="287" rx="20" ry="11.7"/>
	<path class="st13_businessman-67" d="M90.1,285.4c0.1,0.3,0.2,0.6,0.2,0.9l-0.1,0.3h-3.7c0-0.1,0.1-0.2,0.1-0.3c0-0.2-0.1-0.5-0.2-0.7&#10;&#9;&#9;c-0.2-0.4-0.5-0.6-0.9-0.8c-0.5-0.3-1.1-0.4-1.7-0.5c-0.6,0-1.1,0-1.6,0.2c-0.5,0.2-0.7,0.5-0.6,0.9c0.2,0.4,0.4,0.8,0.8,1.1&#10;&#9;&#9;c0.4,0.4,0.8,0.8,1.1,1.3c0.3,0.4,0.4,0.9,0.2,1.4c-0.4,0.7-1,1.1-1.8,1.4c-1.2,0.5-2.5,0.8-3.9,0.8c-1.4,0.1-2.9-0.1-4.2-0.6&#10;&#9;&#9;l-2.1,0.9l-2.5-1.2l2.1-0.9c-0.4-0.2-0.7-0.5-1-0.9c-0.2-0.2-0.4-0.5-0.5-0.8c-0.1-0.2-0.1-0.4-0.1-0.7c0-0.2,0-0.3,0-0.5l0.1-0.2&#10;&#9;&#9;h3.7c0,0.1-0.1,0.2-0.1,0.4c0,0.3,0.1,0.6,0.3,0.8c0.3,0.4,0.7,0.8,1.2,1c0.7,0.3,1.4,0.5,2.1,0.5c0.7,0.1,1.4-0.1,2-0.3&#10;&#9;&#9;c0.5-0.2,0.7-0.5,0.6-0.9c-0.2-0.4-0.5-0.8-0.8-1.1c-0.4-0.4-0.8-0.8-1.1-1.3c-0.3-0.4-0.3-0.9-0.2-1.4c0.4-0.7,1.1-1.1,1.9-1.4&#10;&#9;&#9;c1.2-0.5,2.4-0.7,3.7-0.7c1.4-0.1,2.7,0.2,4,0.6l2.1-0.9l2.3,1.2l-2.1,0.9C89.6,284.6,89.9,285,90.1,285.4z"/>
	<path class="st13_businessman-67" d="M80,298.3c-10.2,0-18.1-4.9-18.1-11.2S69.8,276,80,276s18.1,4.9,18.1,11.2S90.2,298.3,80,298.3z M80,278.7&#10;&#9;&#9;c-8.4,0-15.4,3.9-15.4,8.5s7,8.5,15.4,8.5s15.4-3.9,15.4-8.5S88.3,278.7,80,278.7z"/>
	<ellipse class="st13_businessman-67" cx="70.2" cy="280.5" rx="20" ry="11.7"/>
	<ellipse class="st10_businessman-67" cx="70.2" cy="277.1" rx="20" ry="11.7"/>
	<path class="st13_businessman-67" d="M80.3,275.6c0.1,0.3,0.2,0.6,0.2,0.9l-0.1,0.3h-3.7c0-0.1,0.1-0.2,0.1-0.3c0-0.2-0.1-0.5-0.2-0.7&#10;&#9;&#9;c-0.2-0.4-0.5-0.6-0.9-0.8c-0.5-0.3-1.1-0.4-1.7-0.5c-0.6,0-1.1,0-1.6,0.2c-0.5,0.2-0.7,0.5-0.6,0.9c0.2,0.4,0.4,0.8,0.8,1.1&#10;&#9;&#9;c0.4,0.4,0.8,0.8,1.1,1.3c0.3,0.4,0.4,0.9,0.2,1.4c-0.4,0.7-1,1.1-1.8,1.4c-1.2,0.5-2.5,0.8-3.9,0.8c-1.4,0.1-2.9-0.1-4.3-0.6&#10;&#9;&#9;l-2.1,0.9l-2.5-1.2l2-0.9c-0.4-0.2-0.7-0.5-1-0.9c-0.2-0.2-0.4-0.5-0.5-0.8c-0.1-0.2-0.1-0.4-0.1-0.7c0-0.2,0-0.3,0-0.5l0.1-0.2&#10;&#9;&#9;h3.7c0,0.1-0.1,0.2-0.1,0.4c0,0.3,0.1,0.6,0.3,0.8c0.3,0.4,0.7,0.8,1.2,1c0.7,0.3,1.4,0.5,2.1,0.6c0.7,0,1.4-0.1,2-0.3&#10;&#9;&#9;c0.5-0.2,0.7-0.5,0.6-0.9c-0.2-0.4-0.5-0.8-0.8-1.1c-0.4-0.4-0.7-0.8-1.1-1.3c-0.3-0.4-0.3-0.9-0.2-1.4c0.4-0.7,1.1-1.1,1.9-1.4&#10;&#9;&#9;c1.2-0.5,2.4-0.7,3.7-0.7c1.4-0.1,2.7,0.2,4,0.6l2.1-0.9l2.3,1.2l-2.1,0.9C79.8,274.7,80.1,275.1,80.3,275.6z"/>
	<path class="st13_businessman-67" d="M70.3,288.5c-10.2,0-18.1-4.9-18.1-11.2s8-11.2,18.1-11.2s18.1,4.9,18.1,11.2S80.4,288.5,70.3,288.5z&#10;&#9;&#9; M70.3,268.8c-8.4,0-15.4,3.9-15.4,8.5s7.1,8.5,15.4,8.5s15.4-3.9,15.4-8.5S78.6,268.8,70.3,268.8z"/>
</g>
<g id="Working_Desk_businessman-67">
	<polygon class="st9_businessman-67" points="235.1,199.1 235.1,259.6 238.8,262.3 244.5,258.5 244.5,198 236.7,194.4 &#9;"/>
	<path class="st9_businessman-67" d="M236.8,203.3l54.7,31.8c1.2,0.7,2.6,0.7,3.8,0l78.7-49.5c1.7-1.1,2.2-3.3,1.1-5c-0.3-0.5-0.8-1-1.4-1.3&#10;&#9;&#9;l-53.1-28.7c-1.1-0.6-2.4-0.6-3.5,0L236.9,197c-1.8,1-2.4,3.2-1.4,4.9C235.8,202.5,236.2,203,236.8,203.3z"/>
	<path class="st11_businessman-67" d="M280.2,132.1c-2.4-1.4-5.4-0.9-8.2,0c-11.3,3.9-27.6,11.8-27.4,25.8c0.1,7.5,0.9,15,2.2,22.4&#10;&#9;&#9;c0.5,2.9,1,6.5,2.7,9c2.6,3.7,14-4.7,16.2-6.1c3.7-2.4,7.3-5,10.8-7.6c2.6-2,8.5-5.1,9.6-8.1c0.2-0.7,0.3-1.4,0.3-2.1&#10;&#9;&#9;c0.2-6.6-0.2-13.1-1.1-19.7C284.7,141.3,284.4,134.6,280.2,132.1z"/>
	<path class="st9_businessman-67" d="M367.6,178.2v56l3.7,2.6l5.8-3.8v-55.9C373.9,177.4,370.8,177.7,367.6,178.2z"/>
	<polygon class="st9_businessman-67" points="289.5,228.3 289.5,288.9 293.3,291.5 299,287.7 299,227.2 291.2,223.6 &#9;"/>
	<polygon class="st9_businessman-67" points="235.1,194.4 235.1,201.9 239,202.5 &#9;"/>
	<path class="st10_businessman-67" d="M236.5,197.7l56,32.5c1,0.6,2.1,0.6,3.1,0l80-50.3c1.4-0.9,1.8-2.7,0.9-4.1c-0.3-0.4-0.7-0.8-1.1-1L321,145.4&#10;&#9;&#9;c-0.9-0.5-2-0.5-2.9,0l-81.6,47.1c-1.4,0.8-1.9,2.7-1.1,4.1C235.6,197.1,236,197.5,236.5,197.7L236.5,197.7z"/>
	<path class="st9_businessman-67" d="M301.8,144.6l39.8-23.1c1-0.6,2.3-0.2,2.8,0.8c0.2,0.3,0.3,0.6,0.3,1v30.4c0,1.2-0.6,2.3-1.7,2.9l-39.2,22.2&#10;&#9;&#9;c-1.2,0.7-2.7,0.3-3.4-0.8c-0.2-0.4-0.4-0.8-0.4-1.3v-29.1C300,146.4,300.7,145.2,301.8,144.6z"/>
	<polygon class="st9_businessman-67" points="285.7,220.5 304.1,209.6 282.5,196.8 263.6,207.8 &#9;"/>
	<polygon class="st5_businessman-67 targetColor" points="293.7,219.7 312.1,208.7 290.5,196 271.6,206.9 &#9;" style="fill: rgb(104, 225, 253);"/>
	<polygon class="st9_businessman-67" points="260.5,199.7 264.2,202.2 284.2,190.6 280.4,188.3 &#9;"/>
	<polyline class="st9_businessman-67" points="321.5,163.8 321.5,176.8 330.5,171.9 330.5,159.2 &#9;"/>
	
		<ellipse transform="matrix(0.8979 -0.4403 0.4403 0.8979 -43.8713 160.4391)" class="st9_businessman-67" cx="323.9" cy="174.8" rx="15.3" ry="3.6"/>
</g>
</svg>